<?xml version="1.0" encoding="UTF-8" standalone="no"?>
<!DOCTYPE svg PUBLIC "-//W3C//DTD SVG 1.1//EN"
 "http://www.w3.org/Graphics/SVG/1.1/DTD/svg11.dtd">
<!-- Generated by graphviz version 2.40.1 (20161225.0304)
 -->
<!-- Title: %3 Pages: 1 -->
<svg width="3227pt" height="620pt"
 viewBox="0.00 0.00 3227.16 620.00" xmlns="http://www.w3.org/2000/svg" xmlns:xlink="http://www.w3.org/1999/xlink">
<g id="graph0" class="graph" transform="scale(1 1) rotate(0) translate(4 616)">
<title>%3</title>
<polygon fill="#ffffff" stroke="transparent" points="-4,4 -4,-616 3223.1567,-616 3223.1567,4 -4,4"/>
<!-- [root] data.aws_availability_zones.available -->
<g id="node1" class="node">
<title>[root] data.aws_availability_zones.available</title>
<polygon fill="none" stroke="#000000" points="1418.3843,-468 1190.4438,-468 1190.4438,-432 1418.3843,-432 1418.3843,-468"/>
<text text-anchor="middle" x="1304.4141" y="-445.8" font-family="Times,serif" font-size="14.00" fill="#000000">data.aws_availability_zones.available</text>
</g>
<!-- [root] provider.aws -->
<g id="node17" class="node">
<title>[root] provider.aws</title>
<polygon fill="none" stroke="#000000" points="1251.4141,-108 1172.8057,-90 1251.4141,-72 1330.0224,-90 1251.4141,-108"/>
<text text-anchor="middle" x="1251.4141" y="-85.8" font-family="Times,serif" font-size="14.00" fill="#000000">provider.aws</text>
</g>
<!-- [root] data.aws_availability_zones.available&#45;&gt;[root] provider.aws -->
<g id="edge1" class="edge">
<title>[root] data.aws_availability_zones.available&#45;&gt;[root] provider.aws</title>
<path fill="none" stroke="#000000" d="M1297.2035,-431.6867C1287.2231,-404.6448 1270.4141,-352.2373 1270.4141,-306 1270.4141,-306 1270.4141,-306 1270.4141,-234 1270.4141,-193.081 1262.7801,-146.1792 1257.1901,-117.3198"/>
<polygon fill="#000000" stroke="#000000" points="1260.5583,-116.3137 1255.1679,-107.1927 1253.6938,-117.6845 1260.5583,-116.3137"/>
</g>
<!-- [root] module.aws_ALB_module.aws_autoscaling_attachment.autoscale_attachment -->
<g id="node2" class="node">
<title>[root] module.aws_ALB_module.aws_autoscaling_attachment.autoscale_attachment</title>
<polygon fill="none" stroke="#000000" points="2213.1153,-468 1757.7128,-468 1757.7128,-432 2213.1153,-432 2213.1153,-468"/>
<text text-anchor="middle" x="1985.4141" y="-445.8" font-family="Times,serif" font-size="14.00" fill="#000000">module.aws_ALB_module.aws_autoscaling_attachment.autoscale_attachment</text>
</g>
<!-- [root] module.aws_ALB_module.aws_lb_target_group.test -->
<g id="node6" class="node">
<title>[root] module.aws_ALB_module.aws_lb_target_group.test</title>
<polygon fill="none" stroke="#000000" points="2210.0617,-324 1898.7664,-324 1898.7664,-288 2210.0617,-288 2210.0617,-324"/>
<text text-anchor="middle" x="2054.4141" y="-301.8" font-family="Times,serif" font-size="14.00" fill="#000000">module.aws_ALB_module.aws_lb_target_group.test</text>
</g>
<!-- [root] module.aws_ALB_module.aws_autoscaling_attachment.autoscale_attachment&#45;&gt;[root] module.aws_ALB_module.aws_lb_target_group.test -->
<g id="edge12" class="edge">
<title>[root] module.aws_ALB_module.aws_autoscaling_attachment.autoscale_attachment&#45;&gt;[root] module.aws_ALB_module.aws_lb_target_group.test</title>
<path fill="none" stroke="#000000" d="M1994.153,-431.7623C2006.0774,-406.8764 2027.5413,-362.0822 2041.3728,-333.2165"/>
<polygon fill="#000000" stroke="#000000" points="2044.5812,-334.6202 2045.7461,-324.0896 2038.2685,-331.5953 2044.5812,-334.6202"/>
</g>
<!-- [root] module.aws_ALB_module.aws_lb.MCH&#45;ALB -->
<g id="node3" class="node">
<title>[root] module.aws_ALB_module.aws_lb.MCH&#45;ALB</title>
<polygon fill="none" stroke="#000000" points="2506.894,-324 2227.9342,-324 2227.9342,-288 2506.894,-288 2506.894,-324"/>
<text text-anchor="middle" x="2367.4141" y="-301.8" font-family="Times,serif" font-size="14.00" fill="#000000">module.aws_ALB_module.aws_lb.MCH&#45;ALB</text>
</g>
<!-- [root] module.aws_ALB_module.aws_subnet.subnet -->
<g id="node7" class="node">
<title>[root] module.aws_ALB_module.aws_subnet.subnet</title>
<polygon fill="none" stroke="#000000" points="2432.5489,-252 2156.2793,-252 2156.2793,-216 2432.5489,-216 2432.5489,-252"/>
<text text-anchor="middle" x="2294.4141" y="-229.8" font-family="Times,serif" font-size="14.00" fill="#000000">module.aws_ALB_module.aws_subnet.subnet</text>
</g>
<!-- [root] module.aws_ALB_module.aws_lb.MCH&#45;ALB&#45;&gt;[root] module.aws_ALB_module.aws_subnet.subnet -->
<g id="edge13" class="edge">
<title>[root] module.aws_ALB_module.aws_lb.MCH&#45;ALB&#45;&gt;[root] module.aws_ALB_module.aws_subnet.subnet</title>
<path fill="none" stroke="#000000" d="M2348.9931,-287.8314C2340.2611,-279.219 2329.6823,-268.7851 2320.1717,-259.4048"/>
<polygon fill="#000000" stroke="#000000" points="2322.4066,-256.6931 2312.8292,-252.1628 2317.4911,-261.6769 2322.4066,-256.6931"/>
</g>
<!-- [root] module.aws_ALB_module.aws_lb_listener.front_end -->
<g id="node4" class="node">
<title>[root] module.aws_ALB_module.aws_lb_listener.front_end</title>
<polygon fill="none" stroke="#000000" points="2525.2042,-396 2209.624,-396 2209.624,-360 2525.2042,-360 2525.2042,-396"/>
<text text-anchor="middle" x="2367.4141" y="-373.8" font-family="Times,serif" font-size="14.00" fill="#000000">module.aws_ALB_module.aws_lb_listener.front_end</text>
</g>
<!-- [root] module.aws_ALB_module.aws_lb_listener.front_end&#45;&gt;[root] module.aws_ALB_module.aws_lb.MCH&#45;ALB -->
<g id="edge14" class="edge">
<title>[root] module.aws_ALB_module.aws_lb_listener.front_end&#45;&gt;[root] module.aws_ALB_module.aws_lb.MCH&#45;ALB</title>
<path fill="none" stroke="#000000" d="M2367.4141,-359.8314C2367.4141,-352.131 2367.4141,-342.9743 2367.4141,-334.4166"/>
<polygon fill="#000000" stroke="#000000" points="2370.9142,-334.4132 2367.4141,-324.4133 2363.9142,-334.4133 2370.9142,-334.4132"/>
</g>
<!-- [root] module.aws_ALB_module.aws_lb_listener.front_end&#45;&gt;[root] module.aws_ALB_module.aws_lb_target_group.test -->
<g id="edge15" class="edge">
<title>[root] module.aws_ALB_module.aws_lb_listener.front_end&#45;&gt;[root] module.aws_ALB_module.aws_lb_target_group.test</title>
<path fill="none" stroke="#000000" d="M2288.835,-359.9243C2244.3803,-349.6983 2188.664,-336.8818 2142.7049,-326.3097"/>
<polygon fill="#000000" stroke="#000000" points="2143.2841,-322.8516 2132.754,-324.0207 2141.7148,-329.6735 2143.2841,-322.8516"/>
</g>
<!-- [root] module.aws_ALB_module.aws_lb_listener_rule.static -->
<g id="node5" class="node">
<title>[root] module.aws_ALB_module.aws_lb_listener_rule.static</title>
<polygon fill="none" stroke="#000000" points="2551.8528,-468 2230.9753,-468 2230.9753,-432 2551.8528,-432 2551.8528,-468"/>
<text text-anchor="middle" x="2391.4141" y="-445.8" font-family="Times,serif" font-size="14.00" fill="#000000">module.aws_ALB_module.aws_lb_listener_rule.static</text>
</g>
<!-- [root] module.aws_ALB_module.aws_lb_listener_rule.static&#45;&gt;[root] module.aws_ALB_module.aws_lb_listener.front_end -->
<g id="edge16" class="edge">
<title>[root] module.aws_ALB_module.aws_lb_listener_rule.static&#45;&gt;[root] module.aws_ALB_module.aws_lb_listener.front_end</title>
<path fill="none" stroke="#000000" d="M2385.3578,-431.8314C2382.7628,-424.0463 2379.6717,-414.7729 2376.7923,-406.1347"/>
<polygon fill="#000000" stroke="#000000" points="2380.0346,-404.7933 2373.5518,-396.4133 2373.3938,-407.0069 2380.0346,-404.7933"/>
</g>
<!-- [root] module.aws_ALB_module.data.aws_security_group.selected -->
<g id="node9" class="node">
<title>[root] module.aws_ALB_module.data.aws_security_group.selected</title>
<polygon fill="none" stroke="#000000" points="2390.8252,-180 2032.0029,-180 2032.0029,-144 2390.8252,-144 2390.8252,-180"/>
<text text-anchor="middle" x="2211.4141" y="-157.8" font-family="Times,serif" font-size="14.00" fill="#000000">module.aws_ALB_module.data.aws_security_group.selected</text>
</g>
<!-- [root] module.aws_ALB_module.aws_lb_target_group.test&#45;&gt;[root] module.aws_ALB_module.data.aws_security_group.selected -->
<g id="edge17" class="edge">
<title>[root] module.aws_ALB_module.aws_lb_target_group.test&#45;&gt;[root] module.aws_ALB_module.data.aws_security_group.selected</title>
<path fill="none" stroke="#000000" d="M2072.5884,-287.6929C2091.0834,-269.2353 2120.744,-240.1054 2147.4141,-216 2158.2431,-206.2123 2170.4228,-195.7955 2181.2277,-186.7487"/>
<polygon fill="#000000" stroke="#000000" points="2183.7312,-189.2187 2189.1772,-180.1307 2179.2525,-183.8389 2183.7312,-189.2187"/>
</g>
<!-- [root] module.aws_ALB_module.aws_subnet.subnet&#45;&gt;[root] module.aws_ALB_module.data.aws_security_group.selected -->
<g id="edge18" class="edge">
<title>[root] module.aws_ALB_module.aws_subnet.subnet&#45;&gt;[root] module.aws_ALB_module.data.aws_security_group.selected</title>
<path fill="none" stroke="#000000" d="M2273.4697,-215.8314C2263.3449,-207.0485 2251.0364,-196.3712 2240.0593,-186.8489"/>
<polygon fill="#000000" stroke="#000000" points="2242.1992,-184.0718 2232.3518,-180.1628 2237.6122,-189.3595 2242.1992,-184.0718"/>
</g>
<!-- [root] module.aws_ALB_module.data.aws_autoscaling_groups.groups -->
<g id="node8" class="node">
<title>[root] module.aws_ALB_module.data.aws_autoscaling_groups.groups</title>
<polygon fill="none" stroke="#000000" points="376.7422,-468 .0859,-468 .0859,-432 376.7422,-432 376.7422,-468"/>
<text text-anchor="middle" x="188.4141" y="-445.8" font-family="Times,serif" font-size="14.00" fill="#000000">module.aws_ALB_module.data.aws_autoscaling_groups.groups</text>
</g>
<!-- [root] module.aws_ALB_module.data.aws_autoscaling_groups.groups&#45;&gt;[root] provider.aws -->
<g id="edge19" class="edge">
<title>[root] module.aws_ALB_module.data.aws_autoscaling_groups.groups&#45;&gt;[root] provider.aws</title>
<path fill="none" stroke="#000000" d="M195.8367,-431.7059C206.1106,-404.6881 223.4141,-352.3101 223.4141,-306 223.4141,-306 223.4141,-306 223.4141,-234 223.4141,-138.2286 932.2148,-102.2191 1172.6991,-92.7578"/>
<polygon fill="#000000" stroke="#000000" points="1172.9119,-96.2523 1182.7684,-92.3664 1172.64,-89.2575 1172.9119,-96.2523"/>
</g>
<!-- [root] module.aws_ALB_module.data.aws_security_group.selected&#45;&gt;[root] provider.aws -->
<g id="edge21" class="edge">
<title>[root] module.aws_ALB_module.data.aws_security_group.selected&#45;&gt;[root] provider.aws</title>
<path fill="none" stroke="#000000" d="M2031.9716,-148.5418C1817.3322,-132.4439 1468.5266,-106.2834 1320.9147,-95.2125"/>
<polygon fill="#000000" stroke="#000000" points="1320.8727,-91.6997 1310.6389,-94.4419 1320.3491,-98.6801 1320.8727,-91.6997"/>
</g>
<!-- [root] module.aws_ALB_module.var.security_group_id -->
<g id="node21" class="node">
<title>[root] module.aws_ALB_module.var.security_group_id</title>
<ellipse fill="none" stroke="#000000" cx="2211.4141" cy="-90" rx="207.6556" ry="18"/>
<text text-anchor="middle" x="2211.4141" y="-85.8" font-family="Times,serif" font-size="14.00" fill="#000000">[root] module.aws_ALB_module.var.security_group_id</text>
</g>
<!-- [root] module.aws_ALB_module.data.aws_security_group.selected&#45;&gt;[root] module.aws_ALB_module.var.security_group_id -->
<g id="edge20" class="edge">
<title>[root] module.aws_ALB_module.data.aws_security_group.selected&#45;&gt;[root] module.aws_ALB_module.var.security_group_id</title>
<path fill="none" stroke="#000000" d="M2211.4141,-143.8314C2211.4141,-136.131 2211.4141,-126.9743 2211.4141,-118.4166"/>
<polygon fill="#000000" stroke="#000000" points="2214.9142,-118.4132 2211.4141,-108.4133 2207.9142,-118.4133 2214.9142,-118.4132"/>
</g>
<!-- [root] module.aws_ALB_module.data.aws_subnet_ids.public -->
<g id="node10" class="node">
<title>[root] module.aws_ALB_module.data.aws_subnet_ids.public</title>
<polygon fill="none" stroke="#000000" points="2894.6456,-468 2570.1825,-468 2570.1825,-432 2894.6456,-432 2894.6456,-468"/>
<text text-anchor="middle" x="2732.4141" y="-445.8" font-family="Times,serif" font-size="14.00" fill="#000000">module.aws_ALB_module.data.aws_subnet_ids.public</text>
</g>
<!-- [root] module.aws_ALB_module.data.aws_subnet_ids.public&#45;&gt;[root] module.aws_ALB_module.data.aws_security_group.selected -->
<g id="edge22" class="edge">
<title>[root] module.aws_ALB_module.data.aws_subnet_ids.public&#45;&gt;[root] module.aws_ALB_module.data.aws_security_group.selected</title>
<path fill="none" stroke="#000000" d="M2715.6776,-431.8114C2673.9279,-387.5921 2559.9803,-273.8495 2441.4141,-216 2410.9667,-201.1445 2376.2239,-190.2537 2343.127,-182.3157"/>
<polygon fill="#000000" stroke="#000000" points="2343.9124,-178.905 2333.3796,-180.0503 2342.3277,-185.7233 2343.9124,-178.905"/>
</g>
<!-- [root] module.aws_AutoScale_module.aws_autoscaling_group.MCH&#45;autoscaling&#45;group -->
<g id="node11" class="node">
<title>[root] module.aws_AutoScale_module.aws_autoscaling_group.MCH&#45;autoscaling&#45;group</title>
<polygon fill="none" stroke="#000000" points="999.8254,-396 525.0028,-396 525.0028,-360 999.8254,-360 999.8254,-396"/>
<text text-anchor="middle" x="762.4141" y="-373.8" font-family="Times,serif" font-size="14.00" fill="#000000">module.aws_AutoScale_module.aws_autoscaling_group.MCH&#45;autoscaling&#45;group</text>
</g>
<!-- [root] module.aws_AutoScale_module.aws_launch_configuration.MCH&#45;launch&#45;config -->
<g id="node13" class="node">
<title>[root] module.aws_AutoScale_module.aws_launch_configuration.MCH&#45;launch&#45;config</title>
<polygon fill="none" stroke="#000000" points="1134.2735,-324 668.5547,-324 668.5547,-288 1134.2735,-288 1134.2735,-324"/>
<text text-anchor="middle" x="901.4141" y="-301.8" font-family="Times,serif" font-size="14.00" fill="#000000">module.aws_AutoScale_module.aws_launch_configuration.MCH&#45;launch&#45;config</text>
</g>
<!-- [root] module.aws_AutoScale_module.aws_autoscaling_group.MCH&#45;autoscaling&#45;group&#45;&gt;[root] module.aws_AutoScale_module.aws_launch_configuration.MCH&#45;launch&#45;config -->
<g id="edge23" class="edge">
<title>[root] module.aws_AutoScale_module.aws_autoscaling_group.MCH&#45;autoscaling&#45;group&#45;&gt;[root] module.aws_AutoScale_module.aws_launch_configuration.MCH&#45;launch&#45;config</title>
<path fill="none" stroke="#000000" d="M797.4896,-359.8314C815.6801,-350.4089 838.0799,-338.8062 857.42,-328.7883"/>
<polygon fill="#000000" stroke="#000000" points="859.08,-331.8701 866.3497,-324.1628 855.8604,-325.6545 859.08,-331.8701"/>
</g>
<!-- [root] module.aws_AutoScale_module.aws_autoscaling_policy.MCH&#45;scaling&#45;policy -->
<g id="node12" class="node">
<title>[root] module.aws_AutoScale_module.aws_autoscaling_policy.MCH&#45;scaling&#45;policy</title>
<polygon fill="none" stroke="#000000" points="848.4746,-468 394.3535,-468 394.3535,-432 848.4746,-432 848.4746,-468"/>
<text text-anchor="middle" x="621.4141" y="-445.8" font-family="Times,serif" font-size="14.00" fill="#000000">module.aws_AutoScale_module.aws_autoscaling_policy.MCH&#45;scaling&#45;policy</text>
</g>
<!-- [root] module.aws_AutoScale_module.aws_autoscaling_policy.MCH&#45;scaling&#45;policy&#45;&gt;[root] module.aws_AutoScale_module.aws_autoscaling_group.MCH&#45;autoscaling&#45;group -->
<g id="edge24" class="edge">
<title>[root] module.aws_AutoScale_module.aws_autoscaling_policy.MCH&#45;scaling&#45;policy&#45;&gt;[root] module.aws_AutoScale_module.aws_autoscaling_group.MCH&#45;autoscaling&#45;group</title>
<path fill="none" stroke="#000000" d="M656.9943,-431.8314C675.4466,-422.4089 698.1686,-410.8062 717.787,-400.7883"/>
<polygon fill="#000000" stroke="#000000" points="719.5309,-403.8278 726.8452,-396.1628 716.3474,-397.5935 719.5309,-403.8278"/>
</g>
<!-- [root] module.aws_AutoScale_module.data.aws_ami.ubuntu -->
<g id="node14" class="node">
<title>[root] module.aws_AutoScale_module.data.aws_ami.ubuntu</title>
<polygon fill="none" stroke="#000000" points="1117.4629,-180 797.3652,-180 797.3652,-144 1117.4629,-144 1117.4629,-180"/>
<text text-anchor="middle" x="957.4141" y="-157.8" font-family="Times,serif" font-size="14.00" fill="#000000">module.aws_AutoScale_module.data.aws_ami.ubuntu</text>
</g>
<!-- [root] module.aws_AutoScale_module.aws_launch_configuration.MCH&#45;launch&#45;config&#45;&gt;[root] module.aws_AutoScale_module.data.aws_ami.ubuntu -->
<g id="edge25" class="edge">
<title>[root] module.aws_AutoScale_module.aws_launch_configuration.MCH&#45;launch&#45;config&#45;&gt;[root] module.aws_AutoScale_module.data.aws_ami.ubuntu</title>
<path fill="none" stroke="#000000" d="M908.5065,-287.7623C918.1423,-262.9846 935.453,-218.4714 946.6831,-189.5939"/>
<polygon fill="#000000" stroke="#000000" points="950.0167,-190.6783 950.3792,-180.0896 943.4927,-188.1411 950.0167,-190.6783"/>
</g>
<!-- [root] module.aws_AutoScale_module.data.aws_ami.ubuntu&#45;&gt;[root] provider.aws -->
<g id="edge26" class="edge">
<title>[root] module.aws_AutoScale_module.data.aws_ami.ubuntu&#45;&gt;[root] provider.aws</title>
<path fill="none" stroke="#000000" d="M1031.2232,-143.9243C1085.102,-130.7295 1156.5926,-113.2216 1203.2813,-101.7876"/>
<polygon fill="#000000" stroke="#000000" points="1204.2609,-105.1512 1213.1413,-99.3729 1202.5957,-98.3521 1204.2609,-105.1512"/>
</g>
<!-- [root] module.aws_S3_module.aws_iam_policy.s3_policy -->
<g id="node15" class="node">
<title>[root] module.aws_S3_module.aws_iam_policy.s3_policy</title>
<polygon fill="none" stroke="#000000" points="1172.7502,-468 866.0779,-468 866.0779,-432 1172.7502,-432 1172.7502,-468"/>
<text text-anchor="middle" x="1019.4141" y="-445.8" font-family="Times,serif" font-size="14.00" fill="#000000">module.aws_S3_module.aws_iam_policy.s3_policy</text>
</g>
<!-- [root] module.aws_S3_module.aws_iam_policy.s3_policy&#45;&gt;[root] provider.aws -->
<g id="edge27" class="edge">
<title>[root] module.aws_S3_module.aws_iam_policy.s3_policy&#45;&gt;[root] provider.aws</title>
<path fill="none" stroke="#000000" d="M1058.6532,-431.9833C1101.5955,-409.2512 1164.4141,-365.781 1164.4141,-306 1164.4141,-306 1164.4141,-306 1164.4141,-234 1164.4141,-184.8191 1202.051,-138.038 1227.815,-111.776"/>
<polygon fill="#000000" stroke="#000000" points="1230.4041,-114.138 1235.05,-104.6161 1225.4802,-109.1625 1230.4041,-114.138"/>
</g>
<!-- [root] module.aws_S3_module.aws_s3_bucket.bucket_s3 -->
<g id="node16" class="node">
<title>[root] module.aws_S3_module.aws_s3_bucket.bucket_s3</title>
<polygon fill="none" stroke="#000000" points="1739.2629,-468 1435.5652,-468 1435.5652,-432 1739.2629,-432 1739.2629,-468"/>
<text text-anchor="middle" x="1587.4141" y="-445.8" font-family="Times,serif" font-size="14.00" fill="#000000">module.aws_S3_module.aws_s3_bucket.bucket_s3</text>
</g>
<!-- [root] module.aws_S3_module.aws_s3_bucket.bucket_s3&#45;&gt;[root] provider.aws -->
<g id="edge29" class="edge">
<title>[root] module.aws_S3_module.aws_s3_bucket.bucket_s3&#45;&gt;[root] provider.aws</title>
<path fill="none" stroke="#000000" d="M1494.9512,-431.9428C1453.9955,-422.3503 1411.6528,-409.7175 1396.4141,-396 1364.3947,-367.1771 1360.4141,-349.0813 1360.4141,-306 1360.4141,-306 1360.4141,-306 1360.4141,-234 1360.4141,-180.6086 1312.1871,-134.5331 1279.8913,-109.6638"/>
<polygon fill="#000000" stroke="#000000" points="1281.7666,-106.696 1271.6607,-103.5147 1277.577,-112.3038 1281.7666,-106.696"/>
</g>
<!-- [root] module.aws_S3_module.var.bucket_name -->
<g id="node22" class="node">
<title>[root] module.aws_S3_module.var.bucket_name</title>
<ellipse fill="none" stroke="#000000" cx="1587.4141" cy="-378" rx="182.0552" ry="18"/>
<text text-anchor="middle" x="1587.4141" y="-373.8" font-family="Times,serif" font-size="14.00" fill="#000000">[root] module.aws_S3_module.var.bucket_name</text>
</g>
<!-- [root] module.aws_S3_module.aws_s3_bucket.bucket_s3&#45;&gt;[root] module.aws_S3_module.var.bucket_name -->
<g id="edge28" class="edge">
<title>[root] module.aws_S3_module.aws_s3_bucket.bucket_s3&#45;&gt;[root] module.aws_S3_module.var.bucket_name</title>
<path fill="none" stroke="#000000" d="M1587.4141,-431.8314C1587.4141,-424.131 1587.4141,-414.9743 1587.4141,-406.4166"/>
<polygon fill="#000000" stroke="#000000" points="1590.9142,-406.4132 1587.4141,-396.4133 1583.9142,-406.4133 1590.9142,-406.4132"/>
</g>
<!-- [root] var.region -->
<g id="node24" class="node">
<title>[root] var.region</title>
<ellipse fill="none" stroke="#000000" cx="1251.4141" cy="-18" rx="68.1287" ry="18"/>
<text text-anchor="middle" x="1251.4141" y="-13.8" font-family="Times,serif" font-size="14.00" fill="#000000">[root] var.region</text>
</g>
<!-- [root] provider.aws&#45;&gt;[root] var.region -->
<g id="edge38" class="edge">
<title>[root] provider.aws&#45;&gt;[root] var.region</title>
<path fill="none" stroke="#000000" d="M1251.4141,-71.8314C1251.4141,-64.131 1251.4141,-54.9743 1251.4141,-46.4166"/>
<polygon fill="#000000" stroke="#000000" points="1254.9142,-46.4132 1251.4141,-36.4133 1247.9142,-46.4133 1254.9142,-46.4132"/>
</g>
<!-- [root] meta.count&#45;boundary (count boundary fixup) -->
<g id="node18" class="node">
<title>[root] meta.count&#45;boundary (count boundary fixup)</title>
<ellipse fill="none" stroke="#000000" cx="1759.4141" cy="-522" rx="191.6931" ry="18"/>
<text text-anchor="middle" x="1759.4141" y="-517.8" font-family="Times,serif" font-size="14.00" fill="#000000">[root] meta.count&#45;boundary (count boundary fixup)</text>
</g>
<!-- [root] meta.count&#45;boundary (count boundary fixup)&#45;&gt;[root] data.aws_availability_zones.available -->
<g id="edge2" class="edge">
<title>[root] meta.count&#45;boundary (count boundary fixup)&#45;&gt;[root] data.aws_availability_zones.available</title>
<path fill="none" stroke="#000000" d="M1661.5257,-506.51C1593.3009,-495.714 1501.7389,-481.225 1428.4102,-469.6214"/>
<polygon fill="#000000" stroke="#000000" points="1428.6127,-466.1099 1418.1886,-468.0039 1427.5186,-473.0239 1428.6127,-466.1099"/>
</g>
<!-- [root] meta.count&#45;boundary (count boundary fixup)&#45;&gt;[root] module.aws_ALB_module.aws_autoscaling_attachment.autoscale_attachment -->
<g id="edge3" class="edge">
<title>[root] meta.count&#45;boundary (count boundary fixup)&#45;&gt;[root] module.aws_ALB_module.aws_autoscaling_attachment.autoscale_attachment</title>
<path fill="none" stroke="#000000" d="M1813.8343,-504.6626C1845.4556,-494.5885 1885.5361,-481.8195 1919.0056,-471.1567"/>
<polygon fill="#000000" stroke="#000000" points="1920.2438,-474.4356 1928.7095,-468.0652 1918.1188,-467.7659 1920.2438,-474.4356"/>
</g>
<!-- [root] meta.count&#45;boundary (count boundary fixup)&#45;&gt;[root] module.aws_ALB_module.aws_lb_listener_rule.static -->
<g id="edge4" class="edge">
<title>[root] meta.count&#45;boundary (count boundary fixup)&#45;&gt;[root] module.aws_ALB_module.aws_lb_listener_rule.static</title>
<path fill="none" stroke="#000000" d="M1881.6445,-508.075C1978.8142,-497.005 2115.7979,-481.3993 2223.2987,-469.1524"/>
<polygon fill="#000000" stroke="#000000" points="2223.7389,-472.625 2233.2784,-468.0155 2222.9465,-465.67 2223.7389,-472.625"/>
</g>
<!-- [root] meta.count&#45;boundary (count boundary fixup)&#45;&gt;[root] module.aws_ALB_module.data.aws_autoscaling_groups.groups -->
<g id="edge5" class="edge">
<title>[root] meta.count&#45;boundary (count boundary fixup)&#45;&gt;[root] module.aws_ALB_module.data.aws_autoscaling_groups.groups</title>
<path fill="none" stroke="#000000" d="M1626.51,-508.9905C1603.8081,-507.0857 1580.4467,-505.3235 1558.4141,-504 1041.0786,-472.9239 907.7142,-499.4035 386.8961,-468.0682"/>
<polygon fill="#000000" stroke="#000000" points="387.0605,-464.5719 376.8671,-467.4606 386.6371,-471.5591 387.0605,-464.5719"/>
</g>
<!-- [root] meta.count&#45;boundary (count boundary fixup)&#45;&gt;[root] module.aws_ALB_module.data.aws_subnet_ids.public -->
<g id="edge6" class="edge">
<title>[root] meta.count&#45;boundary (count boundary fixup)&#45;&gt;[root] module.aws_ALB_module.data.aws_subnet_ids.public</title>
<path fill="none" stroke="#000000" d="M1923.6959,-512.7052C2083.3337,-503.2596 2332.8729,-487.4025 2559.818,-468.0325"/>
<polygon fill="#000000" stroke="#000000" points="2560.2596,-471.5076 2569.9241,-467.1664 2559.6617,-464.5332 2560.2596,-471.5076"/>
</g>
<!-- [root] meta.count&#45;boundary (count boundary fixup)&#45;&gt;[root] module.aws_AutoScale_module.aws_autoscaling_policy.MCH&#45;scaling&#45;policy -->
<g id="edge7" class="edge">
<title>[root] meta.count&#45;boundary (count boundary fixup)&#45;&gt;[root] module.aws_AutoScale_module.aws_autoscaling_policy.MCH&#45;scaling&#45;policy</title>
<path fill="none" stroke="#000000" d="M1624.321,-509.1924C1602.3043,-507.3094 1579.7329,-505.5014 1558.4141,-504 1250.5617,-482.3185 1170.4599,-487.7431 858.9767,-468.0897"/>
<polygon fill="#000000" stroke="#000000" points="858.9488,-464.581 848.7472,-467.4405 858.5054,-471.567 858.9488,-464.581"/>
</g>
<!-- [root] meta.count&#45;boundary (count boundary fixup)&#45;&gt;[root] module.aws_S3_module.aws_iam_policy.s3_policy -->
<g id="edge8" class="edge">
<title>[root] meta.count&#45;boundary (count boundary fixup)&#45;&gt;[root] module.aws_S3_module.aws_iam_policy.s3_policy</title>
<path fill="none" stroke="#000000" d="M1621.9568,-509.4377C1483.7333,-496.757 1278.8366,-477.8152 1182.934,-468.142"/>
<polygon fill="#000000" stroke="#000000" points="1183.1958,-464.6507 1172.8933,-467.1223 1182.4885,-471.6148 1183.1958,-464.6507"/>
</g>
<!-- [root] meta.count&#45;boundary (count boundary fixup)&#45;&gt;[root] module.aws_S3_module.aws_s3_bucket.bucket_s3 -->
<g id="edge9" class="edge">
<title>[root] meta.count&#45;boundary (count boundary fixup)&#45;&gt;[root] module.aws_S3_module.aws_s3_bucket.bucket_s3</title>
<path fill="none" stroke="#000000" d="M1717.3381,-504.3868C1693.9684,-494.6042 1664.6835,-482.3453 1639.8352,-471.9437"/>
<polygon fill="#000000" stroke="#000000" points="1641.1266,-468.6901 1630.5507,-468.0572 1638.4236,-475.1472 1641.1266,-468.6901"/>
</g>
<!-- [root] var.ami -->
<g id="node19" class="node">
<title>[root] var.ami</title>
<ellipse fill="none" stroke="#000000" cx="2971.4141" cy="-450" rx="58.9668" ry="18"/>
<text text-anchor="middle" x="2971.4141" y="-445.8" font-family="Times,serif" font-size="14.00" fill="#000000">[root] var.ami</text>
</g>
<!-- [root] meta.count&#45;boundary (count boundary fixup)&#45;&gt;[root] var.ami -->
<g id="edge10" class="edge">
<title>[root] meta.count&#45;boundary (count boundary fixup)&#45;&gt;[root] var.ami</title>
<path fill="none" stroke="#000000" d="M1946.3775,-517.9764C2222.162,-511.2215 2724.6509,-495.5606 2903.4141,-468 2908.5625,-467.2062 2913.8831,-466.1773 2919.1757,-465.0135"/>
<polygon fill="#000000" stroke="#000000" points="2920.3357,-468.3361 2929.2663,-462.6357 2918.7301,-461.5227 2920.3357,-468.3361"/>
</g>
<!-- [root] var.server_port -->
<g id="node20" class="node">
<title>[root] var.server_port</title>
<ellipse fill="none" stroke="#000000" cx="3133.4141" cy="-450" rx="85.986" ry="18"/>
<text text-anchor="middle" x="3133.4141" y="-445.8" font-family="Times,serif" font-size="14.00" fill="#000000">[root] var.server_port</text>
</g>
<!-- [root] meta.count&#45;boundary (count boundary fixup)&#45;&gt;[root] var.server_port -->
<g id="edge11" class="edge">
<title>[root] meta.count&#45;boundary (count boundary fixup)&#45;&gt;[root] var.server_port</title>
<path fill="none" stroke="#000000" d="M1945.051,-517.5301C2247.426,-509.6818 2833.2556,-491.9555 3039.4141,-468 3047.1314,-467.1032 3055.1655,-465.9336 3063.1431,-464.6206"/>
<polygon fill="#000000" stroke="#000000" points="3063.9289,-468.0369 3073.1899,-462.8907 3062.741,-461.1385 3063.9289,-468.0369"/>
</g>
<!-- [root] provider.aws (close) -->
<g id="node23" class="node">
<title>[root] provider.aws (close)</title>
<ellipse fill="none" stroke="#000000" cx="1445.4141" cy="-522" rx="104.3276" ry="18"/>
<text text-anchor="middle" x="1445.4141" y="-517.8" font-family="Times,serif" font-size="14.00" fill="#000000">[root] provider.aws (close)</text>
</g>
<!-- [root] provider.aws (close)&#45;&gt;[root] data.aws_availability_zones.available -->
<g id="edge30" class="edge">
<title>[root] provider.aws (close)&#45;&gt;[root] data.aws_availability_zones.available</title>
<path fill="none" stroke="#000000" d="M1411.999,-504.937C1393.2139,-495.3446 1369.5179,-483.2445 1349.149,-472.8434"/>
<polygon fill="#000000" stroke="#000000" points="1350.5519,-469.6299 1340.0541,-468.1992 1347.3684,-475.8641 1350.5519,-469.6299"/>
</g>
<!-- [root] provider.aws (close)&#45;&gt;[root] module.aws_ALB_module.aws_autoscaling_attachment.autoscale_attachment -->
<g id="edge31" class="edge">
<title>[root] provider.aws (close)&#45;&gt;[root] module.aws_ALB_module.aws_autoscaling_attachment.autoscale_attachment</title>
<path fill="none" stroke="#000000" d="M1521.0385,-509.609C1533.5146,-507.6639 1546.3196,-505.7276 1558.4141,-504 1645.6673,-491.5367 1743.1674,-479.0944 1822.9476,-469.2996"/>
<polygon fill="#000000" stroke="#000000" points="1823.5846,-472.7478 1833.0847,-468.0576 1822.7333,-465.7998 1823.5846,-472.7478"/>
</g>
<!-- [root] provider.aws (close)&#45;&gt;[root] module.aws_ALB_module.aws_lb_listener_rule.static -->
<g id="edge32" class="edge">
<title>[root] provider.aws (close)&#45;&gt;[root] module.aws_ALB_module.aws_lb_listener_rule.static</title>
<path fill="none" stroke="#000000" d="M1518.8164,-509.1748C1531.9695,-507.2002 1545.5741,-505.367 1558.4141,-504 1848.9973,-473.0634 1926.0942,-491.2393 2220.742,-468.1077"/>
<polygon fill="#000000" stroke="#000000" points="2221.1753,-471.5844 2230.8667,-467.3033 2220.6209,-464.6063 2221.1753,-471.5844"/>
</g>
<!-- [root] provider.aws (close)&#45;&gt;[root] module.aws_ALB_module.data.aws_autoscaling_groups.groups -->
<g id="edge33" class="edge">
<title>[root] provider.aws (close)&#45;&gt;[root] module.aws_ALB_module.data.aws_autoscaling_groups.groups</title>
<path fill="none" stroke="#000000" d="M1343.3752,-518.1679C1156.0433,-510.8316 744.4342,-493.3156 386.902,-468.0909"/>
<polygon fill="#000000" stroke="#000000" points="387.0949,-464.5959 376.8725,-467.3803 386.6,-471.5784 387.0949,-464.5959"/>
</g>
<!-- [root] provider.aws (close)&#45;&gt;[root] module.aws_ALB_module.data.aws_subnet_ids.public -->
<g id="edge34" class="edge">
<title>[root] provider.aws (close)&#45;&gt;[root] module.aws_ALB_module.data.aws_subnet_ids.public</title>
<path fill="none" stroke="#000000" d="M1518.1896,-509.0694C1531.5328,-507.0801 1545.3645,-505.269 1558.4141,-504 1998.5858,-461.1961 2114.144,-498.6333 2559.6837,-468.0149"/>
<polygon fill="#000000" stroke="#000000" points="2560.2015,-471.4875 2569.9347,-467.3025 2559.7161,-464.5043 2560.2015,-471.4875"/>
</g>
<!-- [root] provider.aws (close)&#45;&gt;[root] module.aws_AutoScale_module.aws_autoscaling_policy.MCH&#45;scaling&#45;policy -->
<g id="edge35" class="edge">
<title>[root] provider.aws (close)&#45;&gt;[root] module.aws_AutoScale_module.aws_autoscaling_policy.MCH&#45;scaling&#45;policy</title>
<path fill="none" stroke="#000000" d="M1352.0931,-513.8457C1228.0725,-503.009 1005.1672,-483.5318 838.0574,-468.93"/>
<polygon fill="#000000" stroke="#000000" points="837.9025,-465.4032 827.6357,-468.0194 837.2931,-472.3766 837.9025,-465.4032"/>
</g>
<!-- [root] provider.aws (close)&#45;&gt;[root] module.aws_S3_module.aws_iam_policy.s3_policy -->
<g id="edge36" class="edge">
<title>[root] provider.aws (close)&#45;&gt;[root] module.aws_S3_module.aws_iam_policy.s3_policy</title>
<path fill="none" stroke="#000000" d="M1370.723,-509.3762C1305.8661,-498.4144 1210.8675,-482.3583 1136.0058,-469.7057"/>
<polygon fill="#000000" stroke="#000000" points="1136.4922,-466.2383 1126.0488,-468.0228 1135.3256,-473.1404 1136.4922,-466.2383"/>
</g>
<!-- [root] provider.aws (close)&#45;&gt;[root] module.aws_S3_module.aws_s3_bucket.bucket_s3 -->
<g id="edge37" class="edge">
<title>[root] provider.aws (close)&#45;&gt;[root] module.aws_S3_module.aws_s3_bucket.bucket_s3</title>
<path fill="none" stroke="#000000" d="M1479.0661,-504.937C1498.0556,-495.3085 1522.028,-483.1535 1542.593,-472.7262"/>
<polygon fill="#000000" stroke="#000000" points="1544.4357,-475.7161 1551.7719,-468.0721 1541.2701,-469.4728 1544.4357,-475.7161"/>
</g>
<!-- [root] root -->
<g id="node25" class="node">
<title>[root] root</title>
<ellipse fill="none" stroke="#000000" cx="1602.4141" cy="-594" rx="46.8976" ry="18"/>
<text text-anchor="middle" x="1602.4141" y="-589.8" font-family="Times,serif" font-size="14.00" fill="#000000">[root] root</text>
</g>
<!-- [root] root&#45;&gt;[root] meta.count&#45;boundary (count boundary fixup) -->
<g id="edge39" class="edge">
<title>[root] root&#45;&gt;[root] meta.count&#45;boundary (count boundary fixup)</title>
<path fill="none" stroke="#000000" d="M1632.6852,-580.1177C1655.0648,-569.8544 1685.9829,-555.6754 1711.6774,-543.892"/>
<polygon fill="#000000" stroke="#000000" points="1713.2512,-547.0208 1720.8819,-539.6708 1710.3332,-540.658 1713.2512,-547.0208"/>
</g>
<!-- [root] root&#45;&gt;[root] provider.aws (close) -->
<g id="edge40" class="edge">
<title>[root] root&#45;&gt;[root] provider.aws (close)</title>
<path fill="none" stroke="#000000" d="M1572.1429,-580.1177C1549.2871,-569.6361 1517.5257,-555.0703 1491.5179,-543.1432"/>
<polygon fill="#000000" stroke="#000000" points="1492.7723,-539.868 1482.2236,-538.8808 1489.8543,-546.2308 1492.7723,-539.868"/>
</g>
</g>
</svg>
